<?xml version="1.0" encoding="utf-8"?>
<!-- Generator: Adobe Illustrator 19.0.0, SVG Export Plug-In . SVG Version: 6.00 Build 0)  -->
<svg version="1.1" id="Layer_1" xmlns="http://www.w3.org/2000/svg" xmlns:xlink="http://www.w3.org/1999/xlink" x="0px" y="0px"
	 viewBox="136 29.6 570 536" style="enable-background:new 136 29.6 570 536;" xml:space="preserve">
<style type="text/css">
	.st0{fill:#33A9E6;}
	.st1{fill:#FFFFFF;}
</style>
<g>
	<path class="st0" d="M490.9,390.7c-5.4-6.5-13-10.1-22.5-10.7c-5.5-0.3-10.7,0.8-15.5,3.3c-4.8,2.4-8.7,5.2-11.8,8.3
		c0.6-7.1,1.2-13.4,1.6-19c0.4-5.5,1-10,1.6-13.4c0.6-4-0.8-6.5-4.4-7.7c-3.6-1.2-7.7-1-12.3,0.4c-4.7,1.4-9,4-13,7.7
		c-4,3.7-6,8.5-6,14.4c0,2.7,0,8.1-0.3,15.9c-0.1,7.8-0.3,17.2-0.4,28c-0.1,4.5-0.2,9.1-0.3,13.9c-6.1,13.8-13,25.5-20.7,35.2
		c0.2-8.7,0.5-18.3,0.8-28.7c0.3-10.4,1.1-22.5,2.5-36.3c0.3-3.1-0.3-5.7-1.6-7.7c-1.5-2.1-3.3-3.6-5.7-4.6c-2.4-1-4.9-1.6-7.6-1.7
		c-2.7,0-5.3,0.1-7.8,0.7c-2.5-5.7-6.6-10.5-12.2-14.4c-4.8-3.4-9.7-5.1-14.8-5.1c-8.5,0-15.9,2.9-22.4,8.6
		c-6.4,5.7-11.7,13-15.6,21.9c-3.9,8.9-6.5,18.5-7.8,28.9c-0.7,5.8-0.8,11.3-0.5,16.6c-1.9,4.6-3.9,8.8-5.9,12.5
		c-2.6,4.8-4.8,7.2-6.7,7.2c-2.8,0-4.5-2.8-5.4-8.3c-0.7-5.6-1-12.2-0.7-20c0.3-7.8,1-15.8,2.1-24.1c1.1-8.3,2.2-15.4,3.5-20.9
		c0.9-4.9-0.3-9.2-3.7-12.5c-3.4-3.4-7.5-5.4-12.1-6c-4.6-0.6-8.9,0.4-12.7,3.3c-3.9,2.8-5.8,7.9-5.8,15.4c0,9.9-0.4,20-1.2,30.4
		c-0.5,8-0.7,15.5-0.5,22.5c-4.4,8.3-9.3,15.8-14.5,22.3c0.2-8.7,0.5-18.3,0.8-28.7c0.3-10.4,1.1-22.5,2.5-36.3
		c0.3-3.1-0.3-5.7-1.6-7.7c-1.5-2.1-3.3-3.6-5.7-4.6s-4.9-1.6-7.6-1.7c-2.7,0-5.3,0.1-7.8,0.7c-2.5-5.7-6.6-10.5-12.2-14.4
		c-4.8-3.4-9.7-5.1-14.8-5.1c-8.5,0-15.9,2.9-22.4,8.6c-6.4,5.7-11.7,13-15.6,21.9c-3.9,8.9-6.5,18.5-7.8,28.9
		c-1.2,10.4-0.8,20.1,1.3,29.1c2.1,9.1,6.1,16.5,12,22.4c5.8,5.9,14,8.9,24.4,8.9c5.9,0,10.7-1.2,14.5-3.4c3.8-2.3,6.9-4.9,9.1-8
		l-1.3,11.4c-6.2,0.5-13.5,2.1-21.9,4.8c-8.4,2.7-16.2,6.4-23.2,11.2c-7.1,4.8-12.2,10.6-15.4,17.5c-3.2,6.9-2.7,14.8,1.5,23.8
		c2.6,5.4,7.5,9.6,15,12.7c7.5,3.2,15.6,4.1,24.1,2.8c8.5-1.3,17-5.2,25.3-11.8s14.7-16.9,19.2-31c1.4-4.7,2.6-9.4,3.6-13.9
		c1-4.5,1.7-9,2.3-13.5c6.9-6.5,13.6-14.3,20-23.5c0.8,2.2,1.7,4.2,2.8,6.2c3.6,6.6,9.5,11.3,17.9,13.7c5.6,1.6,10.7,0.9,15.4-1.9
		c4.6-2.8,8.9-6.7,12.7-11.8c1-1.3,2-2.7,2.9-4.1c2,3.7,4.4,7,7.4,9.9c5.8,5.9,14,8.9,24.4,8.9c5.9,0,10.7-1.2,14.5-3.4
		c3.8-2.3,6.9-4.9,9.1-8l-1.3,11.4c-6.2,0.5-13.5,2.1-21.9,4.8c-8.4,2.7-16.2,6.4-23.2,11.2c-7.1,4.8-12.2,10.6-15.4,17.5
		c-3.2,6.9-2.7,14.8,1.5,23.8c2.6,5.4,7.5,9.6,15,12.7c7.5,3.2,15.5,4.1,24.1,2.8c8.5-1.3,17-5.2,25.3-11.8
		c8.3-6.6,14.7-16.9,19.2-31c1.4-4.7,2.6-9.4,3.6-13.9c1-4.5,1.7-9,2.3-13.5c7.5-7,14.6-15.6,21.6-25.8c-0.3,8.3-0.5,16.5-0.8,24.5
		c-0.4,12.1-1,23.2-1.6,33.4c-0.6,10.2-1.3,18.4-1.9,24.6c-0.6,3.7,0.8,6.4,4.2,8.1c3.3,1.7,7.1,2.4,11.1,2.3
		c3.9-0.2,7.7-1.1,11.3-3c3.6-1.9,5.4-4.5,5.4-7.9c0-6.2,0.1-14.4,0.2-24.8c0.2-10.3,0.6-21.5,1.2-33.6c0.9,0.9,1.9,1.7,2.8,2.3
		c0.9,0.6,1.9,1.3,2.8,1.9c5.6,3.7,11.1,5.6,16.7,5.6c8.4,0.6,15.7-1.8,22-7.2s11.5-12.5,15.5-21.1s6.6-18,7.9-28.2
		c1.2-10.2,0.8-19.9-1.4-28.8C500.1,404.9,496.3,397.2,490.9,390.7z M194.8,510.2c-2.8,10.4-6.4,18.2-10.6,23.4
		c-4.2,5.2-8.1,8.4-11.8,9.5c-3.7,1.1-6.7,0.5-9.1-1.7c-2.4-2.2-3.1-5.6-2.3-10.1c1.4-7.8,5.5-13.9,12.4-18.3
		c6.9-4.4,14.5-7.2,22.6-8.6L194.8,510.2z M202,431.8c-0.9,7.6-2.6,14.6-5.1,21.1c-0.9,1.7-1.7,3.7-2.3,5.9
		c-0.9,2.2-1.8,4.2-2.8,6.1c-1,1.8-2.2,3.3-3.8,4.6c-1.5,1.3-3.5,1.9-5.7,1.9c-4.6,0-8-2.2-10.4-6.6c-2.4-4.3-3.9-9.7-4.6-16.2
		c-0.7-6.5-0.6-13.4,0.2-20.9c0.8-7.4,2.3-14.3,4.4-20.6s4.6-11.5,7.6-15.6c3-4.1,6.2-5.9,9.9-5.3c3.3,0.6,6.2,3.2,8.4,7.8
		c2.2,4.7,3.7,10.2,4.4,16.7C202.9,417.2,202.8,424.2,202,431.8z M351.1,510.2c-2.8,10.4-6.4,18.2-10.6,23.4
		c-4.2,5.2-8.1,8.4-11.8,9.5c-3.7,1.1-6.7,0.5-9.1-1.7c-2.4-2.2-3.1-5.6-2.3-10.1c1.4-7.8,5.5-13.9,12.4-18.3
		c6.9-4.4,14.5-7.2,22.6-8.6L351.1,510.2z M358.3,431.8c-0.9,7.6-2.6,14.6-5.1,21.1c-0.9,1.7-1.7,3.7-2.3,5.9
		c-0.9,2.2-1.8,4.2-2.8,6.1c-1,1.8-2.2,3.3-3.8,4.6c-1.5,1.3-3.5,1.9-5.7,1.9c-4.6,0-8-2.2-10.4-6.6c-2.4-4.3-3.9-9.7-4.6-16.2
		c-0.7-6.5-0.6-13.4,0.2-20.9c0.8-7.4,2.3-14.3,4.4-20.6s4.6-11.5,7.6-15.6c3-4.1,6.2-5.9,9.9-5.3c3.3,0.6,6.2,3.2,8.4,7.8
		c2.2,4.7,3.7,10.2,4.4,16.7S359.1,424.2,358.3,431.8z M472.1,441.4c-1,6.9-2.3,13.3-4,19c-1.7,5.8-3.9,10.5-6.5,14.2
		c-2.6,3.7-5.5,5.2-8.6,4.6c-3.6-0.7-6.7-3.3-9.2-7.9c-2.4-4.6-4-10.2-4.6-16.7s-0.4-13.5,0.7-20.9c1.1-7.5,3-14.4,5.8-20.9
		c1.9-3.8,4.2-7,6.9-9.6c2.7-2.8,5.8-4,9.2-3.7c3.5,0.3,6,2.5,7.7,6.7c1.7,4.2,2.9,9.3,3.3,15.5C473.3,427.9,473,434.5,472.1,441.4z
		"/>
	<path class="st0" d="M704.7,411.8c-1.3-1.9-2.9-3.1-4.8-3.5c-1.9-0.4-3.9,0-6,1c-2.1,1.1-3.4,3.3-4.1,6.5c-1.3,4.7-3.3,10.1-6,16.4
		c-2.7,6.2-5.7,12.2-8.9,17.7c-3.2,5.6-6.4,10.2-9.6,14.2c-3.2,4-5.8,5.9-7.7,5.9c-1.6,0-2.7-2.6-3.4-7.8c-0.7-5.1-1-28-1-35
		c0-6.9,0.4-13.8,1.2-20.6c0.7-6.8,1.6-11.9,2.6-15.1c1.7-4.6,1.1-8.2-1.4-10.7c-2.6-2.4-5.9-3.9-10.1-4c-4.2-0.1-8.5,0.8-13,2.7
		c-4.5,2-8.1,4.7-10.6,8.3c-3.5,5.4-11.1,24.5-14.5,32.2s-6.4,16.3-8.9,26c-0.4-3.6-0.2-8.1,0.2-13.7c0.5-5.6,1.2-11.4,2.2-17.7
		c0.9-6.3,2-12.5,3.1-18.8c1.1-6.2,1.9-11.9,2.6-16.9c0.6-5.4-0.8-9.3-4.3-11.8c-3.5-2.5-7.6-3.6-12.2-3.2
		c-4.6,0.4-9.1,2.3-13.6,5.9c-4.4,3.6-7.1,8.9-8.1,16.1c-1.3,7.2-2,15.3-1.5,24.2c0,2.3,0,4.6,0,6.9c-0.2,0.6-0.3,1.1-0.3,1.8
		c-0.3,24.3-15.2,56.3-17.1,56.3c-2.9,0-4.7-2.9-5.5-8.6s-1-12.6-0.7-20.6c0.3-8,1.1-16.4,2.2-25s2.3-15.9,3.6-21.6
		c1-5.2-0.3-9.5-3.8-13c-3.5-3.6-7.6-5.6-12.4-6.3c-4.8-0.6-9.2,0.5-13.2,3.4c-4,2.8-6,8.1-6,15.8c0,10.2-0.4,20.7-1.5,31.4
		c-0.7,10.7-0.9,20.6-0.2,29.7c0.7,9.1,2.8,17.1,6.5,24c3.7,6.9,9.9,11.7,18.5,14.2c5.7,1.6,10.9,0.7,15.8-1.9
		c13.4-7.1,14.1-19.4,15.5-24.7c0-0.2,0.1-0.4,0.2-0.6c0.1,5.8,0,11-0.2,15.5c-0.3,5.4,1.3,9.3,4.8,11.8c3.5,2.4,7.5,3.7,11.8,3.7
		s8.3-1.2,12-3.5s5.8-5.8,6.5-10.4c0.3-4.2,1.1-9.5,2.4-15.8c1.2-6.3,2.7-12.3,4.3-18c1.5-5.7,7.4-23.3,9.2-27.6s3.5-6.8,5.1-7.5
		c0.5,1.8,0.7,6,0.4,12.6c-0.4,6.6,0.1,30.2,1.4,37.2c1.3,7,3.9,13.3,7.9,18.8c4,5.5,10.6,8.3,19.9,8.3c5.5,0,11.1-3.1,16.8-9.4
		c5.7-6.3,11-13.5,15.8-21.8c4.7-8.2,8.9-16.6,12.4-25.2s5.7-15.4,6.7-20.4C706.3,416.2,706,413.7,704.7,411.8z"/>
	<circle class="st0" cx="266.6" cy="343.3" r="13.8"/>
	<circle class="st0" cx="534.5" cy="352.5" r="13.8"/>
</g>
<path class="st1" d="M506,67.6c-12.8-21.5-39.5-31.1-70.3-34.6c-5.8-0.7-11.8-1-17.9-1.1c-6,0.1-12.1,0.4-17.9,1.1
	c-30.8,3.5-57.5,13-70.3,34.6c-13,21.8-5.9,53.8,4,76.2c32.6,74.2,74.9,111.7,84.2,115.1c9.3-3.4,51.7-41,84.2-115.1
	C511.8,121.5,519,89.4,506,67.6z M417.8,178.4c-34.9,0-63.2-28.2-63.2-63.2S382.8,52,417.8,52c34.9,0,63.2,28.3,63.2,63.2
	S452.7,178.4,417.8,178.4z"/>
<path id="XMLID_1_" class="st0" d="M417.8,89.2c-14.4,0-26,11.6-26,26s11.6,26,26,26c14.4,0,26-11.6,26-26
	C443.9,100.9,432.2,89.2,417.8,89.2z"/>
</svg>
