<?xml version="1.0" encoding="utf-8"?>
<!-- Generator: Adobe Illustrator 19.0.0, SVG Export Plug-In . SVG Version: 6.00 Build 0)  -->
<svg version="1.1" id="Layer_1" xmlns="http://www.w3.org/2000/svg" xmlns:xlink="http://www.w3.org/1999/xlink" x="0px" y="0px"
	 viewBox="0 0 237.2 282.6" style="enable-background:new 0 0 237.2 282.6;" xml:space="preserve">
<style type="text/css">
	.st0{fill-rule:evenodd;clip-rule:evenodd;fill:#FFFFFF;}
	.st1{fill-rule:evenodd;clip-rule:evenodd;fill:#33A9E6;}
</style>
<g>
	<path class="st0" d="M228.4,44.4c-16-26.9-49.2-38.7-87.5-43c-7.2-0.8-14.7-1.3-22.3-1.4c-7.5,0.1-15,0.5-22.3,1.4
		C58,5.7,24.8,17.5,8.8,44.4c-16.2,27.1-7.3,67,4.9,94.9c40.5,92.3,93.3,139.1,104.9,143.4c11.6-4.2,64.4-51,104.9-143.4
		C235.7,111.4,244.5,71.5,228.4,44.4z M118.6,182.4c-43.4,0-78.7-35.2-78.7-78.7c0-43.4,35.2-78.7,78.7-78.7
		c43.4,0,78.7,35.2,78.7,78.7C197.3,147.2,162,182.4,118.6,182.4z"/>
	<path id="XMLID_1_" class="st1" d="M118.6,71.3c-17.9,0-32.4,14.5-32.4,32.4c0,17.9,14.5,32.4,32.4,32.4
		c17.9,0,32.4-14.5,32.4-32.4C151,85.8,136.5,71.3,118.6,71.3z"/>
</g>
</svg>
